<?xml version="1.0" encoding="UTF-8" standalone="no"?>
<svg xmlns:rdf="http://www.w3.org/1999/02/22-rdf-syntax-ns#" xmlns="http://www.w3.org/2000/svg" height="236.281" width="636.469" version="1.1" xmlns:cc="http://creativecommons.org/ns#" xmlns:xlink="http://www.w3.org/1999/xlink" xmlns:dc="http://purl.org/dc/elements/1.1/">
 <defs>
  <linearGradient id="a" y2="101.356" gradientUnits="userSpaceOnUse" y1="107.511" x2="101.202" x1="101.202">
   <stop stop-color="red" offset="0"/>
   <stop stop-color="#fff" offset=".2"/>
   <stop stop-color="#fff" offset=".501961"/>
   <stop stop-color="#fff" offset=".8"/>
   <stop stop-color="red" offset="1"/>
  </linearGradient>
  <style type="text/css">.str0 {stroke:white;stroke-width:0.0762}
    .fil2 {fill:black}
    .fil1 {fill:#CC3300}
    .fil0 {fill:#DEB94E}
    .fil6 {fill:url(#a)}
    .fil5 {fill:url(#id1)}
    .fil4 {fill:url(#id2)}
    .fil3 {fill:url(#id3)}
    .fil7 {fill:url(#id4)}</style>
 </defs>
 <g transform="translate(488.996 -175.911)">
  <path d="m-138.277 179.911c-14.0271 0-24.157 3.95433-30.4375 11.8438-5.55175 6.8341-8.34375 17.3906-8.34375 31.6875v144.375c0 13.2367 3.59058 23.267 10.75 30.0938 7.15699 6.82678 16.416 10.25 27.8125 10.25s20.635-3.51477 27.7188-10.5625c7.08252-7.03858 10.625-17.0786 10.625-30.0938v-76.4375l0.437497 1.46875v-69.375c0-13.8727-3.1582-24.5299-9.4375-32-5.26489-6.26038-12.8372-9.89369-22.7188-10.9062-2.03247-0.22522-4.17602-0.34375-6.40625-0.34375zm248.188 0.0312c-13.9856 0-24.2127 3.95312-30.625 11.8438-5.53956 6.8341-8.28125 17.3912-8.28125 31.6875v25.2812c0 8.32641 2.552 17.3024 7.6875 26.9062 1.16822 2.1344 6.57349 10.656 16.25 25.5938 5.85449 9.19983 11.3645 17.6497 16.5 25.3438 1.90308 3.64014 2.84375 8.55431 2.84375 14.75v26.6562c0 2.56897-0.52929 4.49645-1.59375 5.78125-1.062 1.2854-2.62963 1.90625-4.75 1.90625-1.81883 0-3.36597-0.68066-4.65625-2.0625-1.29151-1.38305-1.9375-3.24452-1.9375-5.59375v-51.4688h-30.3438v51.0938c0 10.4315 2.38159 19.1342 7.1875 26.1562 6.41235 9.57885 16.561 14.375 30.4063 14.375 14.5703 0 24.9119-4.07594 31.0312-12.1875 5.2417-7.0343 7.84375-17.8948 7.84375-32.625v-28.5c0-9.59839-2.11475-18.7764-6.375-27.5312-2.06177-4.26941-6.62939-11.7391-13.6875-22.4062-5.44555-8.11278-11.2644-16.7609-17.4375-25.9375-4.41284-6.86342-6.59375-13.9508-6.59375-21.25v-20.9062c0-2.36145 0.44603-4.08022 1.375-5.15625 0.93017-1.07057 2.32838-1.59375 4.1875-1.59375 1.54908 0 2.83056 0.57568 3.84375 1.75 1.00464 1.1731 1.5 2.82703 1.5 4.96875v41.4375h30.375v-38.6875c0-11.7163-2.56104-20.9606-7.65625-27.7812-5.97779-7.87963-14.999-11.8438-27.0938-11.8438zm-485 1.53125-25.125 223.938h33.1875l5.6875-60.2812h15.25l5.7813 60.2812h33.1874l-25.25-223.938h-42.7187zm73.4687 0v223.938h26.3126v-125.656l20 125.656h23l17.3125-125.656v125.656h30.3438v-223.938h-44.9375l-13.5625 116.281-15.1562-116.281h-43.3126zm-183.375 0.0312v223.938h33.5938v-107.656c3.4088 0 6.0652 0.58119 8 1.75 1.9342 1.1731 2.9062 4.52723 2.9062 10.0625v54.9688c0 11.5015 0.3545 20.3727 1.0626 26.6562 0.7019 6.28845 1.979 11.0266 3.8124 14.2188h16.125v-0.0312h17.0313c-2.4024-2.55737-4.1064-10.1045-5.1563-22.6875-0.3034-4.04846-0.6095-10.0469-0.9062-17.9375v-48.2812c0-2.69531-0.1082-5.17139-0.3438-7.46875l0.1876-1.78125c-0.4963-3.6267-1.2993-6.74768-2.4376-9.28125-3.1676-6.82006-9.0136-11.8011-17.5-15 9.2091-4.46471 15.2479-10.4312 18.125-17.875 1.5815-4.03808 2.375-9.76697 2.375-17.2188v-26.8125c0-11.9123-3.1028-21.4886-9.3124-28.7188-6.211-7.229-14.8395-10.8438-25.9376-10.8438h-41.625zm391.844 0v134l-0.40625-1.40625v91.3125h26.1562v0.0312h2.1875v-119.562l22.9688 119.562h34.5v-223.938h-27.9375v102.344l-19.25-102.344h-38.2188zm92.5 0v223.938h65.9687v-28.5625h-32.375v-79.0938h28.7188v-27.4062h-28.7188v-60.2812h31.9688v-28.5938h-65.5625zm-450.751 28.594c3.4088 0 6.0652 0.5824 8 1.75 1.9342 1.17433 2.9062 4.50878 2.9062 10.0312v36.6875c0 5.52917-1.3061 9.17334-3.9374 10.875-1.0882 0.63599-3.4025 0.9375-6.9688 0.9375v-60.2812zm312.938 0.34375c2.05933 0 3.54297 0.55993 4.5 1.625 0.94849 1.06933 1.4375 2.77574 1.4375 5.125v152.906c0 2.14172-0.48901 3.79382-1.4375 4.96875-0.95703 1.17492-2.44067 1.78125-4.5 1.78125-2.06787 0-3.62475-0.60633-4.65625-1.78125-1.03028-1.17493-1.53125-2.82703-1.53125-4.96875v-152.906c0-2.34926 0.50097-4.05567 1.53125-5.125 1.0315-1.06507 2.58838-1.625 4.65625-1.625zm-215.406 36.8125 4.875 66.9375h-9.4687l4.5937-66.9375z"/>
 </g>
</svg>
